#!OML:ASF X:\für Bonn\!DataBase\2005_08_10_Bjorn_Final\c3d\bjorn.ASF
:FULLY-SPECIFIED
:DEGREES
31
root 23.4462 19.3996 -1.78082 -15.6422 -77.908 -345.602
lowerback 7.31996 2.73421 11.9287
upperback 12.7394 3.06624 1.13584
thorax 10.452 2.35133 -5.355
lowerneck 2.26573 -5.11948 3.83869
upperneck 23.3838 -7.64926 -1.20595
head 6.57222 -3.65142 -1.41459
rclavicle 2.46493e-014 2.70347e-014
rhumerus -10.471 -5.67137 -82.0481
rradius 38.4749
rwrist -7.86671
rhand -15.5959 12.6958
rfingers 7.12502
rthumb 10.59 -17.0173
lclavicle 2.46493e-014 2.70347e-014
lhumerus -23.6152 2.49219 87.8593
lradius 24.8436
lwrist -32.9307
lhand -14.0349 -10.02
lfingers 7.12502
lthumb 12.0954 19.6104
rfemur -16.3043 -11.726 15.0943
rtibia 28.8459
rfoot -4.34388 14.2973
rtoes -0.906191
lfemur -15.8928 13.1648 -16.6371
ltibia 45.9157
lfoot -9.73123 -0.0860259
ltoes -18.4109
32
root 23.4188 19.3959 -1.78606 -15.615 -77.972 -345.733
lowerback 7.70664 2.76419 11.9518
upperback 12.9747 3.11568 1.12866
thorax 10.5227 2.38174 -5.38352
lowerneck 2.21911 -5.17677 3.88488
upperneck 23.0533 -7.71814 -1.10633
head 6.47382 -3.67303 -1.38569
rclavicle 3.49861e-014 2.8625e-014
rhumerus -9.7461 -5.33186 -81.9341
rradius 38.2742
rwrist -7.94275
rhand -15.5522 12.6528
rfingers 7.12502
rthumb 10.6321 -17.0583
lclavicle 3.49861e-014 2.8625e-014
lhumerus -23.2215 2.36863 87.8949
lradius 25.053
lwrist -32.8789
lhand -14.3983 -10.1569
lfingers 7.12502
lthumb 11.7451 19.4938
rfemur -16.1586 -11.7811 15.1396
rtibia 28.9407
rfoot -4.44001 14.4429
rtoes -0.624076
lfemur -15.9449 12.9702 -16.4948
ltibia 45.1137
lfoot -9.94223 0.105993
ltoes -19.3248
33
root 23.3925 19.3943 -1.78985 -15.5688 -78.0409 -345.864
lowerback 8.05923 2.80152 11.9718
upperback 13.2223 3.16752 1.1271
thorax 10.6293 2.4144 -5.40205
lowerneck 2.10502 -5.22919 3.93425
upperneck 22.7874 -7.78972 -0.994992
head 6.40852 -3.69372 -1.35797
rclavicle 5.32743e-014 -3.18055e-014
rhumerus -9.00196 -5.07849 -81.81
rradius 38.0446
rwrist -7.95925
rhand -15.4482 12.6517
rfingers 7.12502
rthumb 10.7325 -17.0542
lclavicle 5.32743e-014 -3.18055e-014
lhumerus -22.784 2.13912 87.9782
lradius 25.2477
lwrist -32.7435
lhand -14.8262 -10.251
lfingers 7.12502
lthumb 11.3324 19.4228
rfemur -16.0131 -11.9472 15.192
rtibia 28.9874
rfoot -4.47458 14.6962
rtoes -0.328163
lfemur -16.0005 12.7621 -16.3437
ltibia 44.3524
lfoot -10.1596 0.297483
ltoes -20.4841
34
root 23.3664 19.3907 -1.79512 -15.6194 -78.0891 -345.918
lowerback 8.43506 2.81933 11.9489
upperback 13.4755 3.19383 1.12515
thorax 10.7198 2.42918 -5.39983
lowerneck 1.96599 -5.26639 3.95955
upperneck 22.5323 -7.83514 -0.915752
head 6.35099 -3.70608 -1.33668
rclavicle 5.56597e-015 1.43125e-014
rhumerus -8.26464 -4.75948 -81.6921
rradius 37.8398
rwrist -8.03214
rhand -15.3484 12.5561
rfingers 7.12502
rthumb 10.8287 -17.1447
lclavicle 5.56597e-015 1.43125e-014
lhumerus -22.3433 1.91215 88.075
lradius 25.4515
lwrist -32.5039
lhand -15.2192 -10.3486
lfingers 7.12502
lthumb 10.9534 19.3456
rfemur -15.8323 -12.0801 15.212
rtibia 29.0049
rfoot -4.5172 14.8881
rtoes -0.0566924
lfemur -16.0193 12.5296 -16.1948
ltibia 43.6252
lfoot -10.2643 0.61746
ltoes -21.7825
35
root 23.3422 19.3904 -1.79981 -15.5737 -78.1552 -346.06
lowerback 8.80988 2.84819 11.9466
upperback 13.7471 3.23059 1.12612
thorax 10.8396 2.45212 -5.40461
lowerneck 1.79885 -5.30182 4.01806
upperneck 22.239 -7.87873 -0.827681
head 6.2853 -3.71448 -1.31798
rclavicle -7.15625e-015 1.59028e-014
rhumerus -7.49212 -4.45689 -81.5752
rradius 37.6227
rwrist -8.07741
rhand -15.2287 12.4973
rfingers 7.12502
rthumb 10.9442 -17.1975
lclavicle -7.15625e-015 1.59028e-014
lhumerus -21.8384 1.6055 88.1965
lradius 25.6681
lwrist -32.1616
lhand -15.5426 -10.4127
lfingers 7.12502
lthumb 10.6414 19.2978
rfemur -15.652 -12.2739 15.2647
rtibia 28.9913
rfoot -4.53454 15.1388
rtoes 0.0175831
lfemur -16.0332 12.2468 -16.002
ltibia 42.9183
lfoot -10.3296 0.853649
ltoes -21.841
